<?xml version="1.0" encoding="UTF-8"?>
<svg width="24px" height="24px" viewBox="0 0 318 318" version="1.1" xmlns="http://www.w3.org/2000/svg">
    <g stroke="none" stroke-width="1" fill="none" fill-rule="evenodd">
        <path d="M274.1,35.5 L174.6,109.4 L193,65.8 L274.1,35.5 Z" fill="#E2761B" stroke="#E2761B" stroke-linecap="round" stroke-linejoin="round"/>
        <path d="M44.4,35.5 L143.1,110.1 L125.6,65.8 L44.4,35.5 Z" fill="#E4761B" stroke="#E4761B" stroke-linecap="round" stroke-linejoin="round"/>
        <path d="M238.3,206.8 L211.8,247.4 L268.5,263 L284.8,207.7 L238.3,206.8 Z" fill="#E4761B" stroke="#E4761B" stroke-linecap="round" stroke-linejoin="round"/>
        <path d="M33.9,207.7 L50.1,263 L106.8,247.4 L80.3,206.8 L33.9,207.7 Z" fill="#E4761B" stroke="#E4761B" stroke-linecap="round" stroke-linejoin="round"/>
        <path d="M103.6,138.2 L87.8,162.1 L144.1,164.6 L142.1,104.1 L103.6,138.2 Z" fill="#E4761B" stroke="#E4761B" stroke-linecap="round" stroke-linejoin="round"/>
        <path d="M214.9,138.2 L175.9,103.4 L174.6,164.6 L230.8,162.1 L214.9,138.2 Z" fill="#E4761B" stroke="#E4761B" stroke-linecap="round" stroke-linejoin="round"/>
        <path d="M106.8,247.4 L140.6,230.9 L111.4,208.1 L106.8,247.4 Z" fill="#E4761B" stroke="#E4761B" stroke-linecap="round" stroke-linejoin="round"/>
        <path d="M177.9,230.9 L211.8,247.4 L207.1,208.1 L177.9,230.9 Z" fill="#E4761B" stroke="#E4761B" stroke-linecap="round" stroke-linejoin="round"/>
        <path d="M211.8,247.4 L177.9,230.9 L180.6,253 L180.3,262.3 L211.8,247.4 Z" fill="#D7C1B3" stroke="#D7C1B3" stroke-linecap="round" stroke-linejoin="round"/>
        <path d="M106.8,247.4 L138.3,262.3 L138.1,253 L140.6,230.9 L106.8,247.4 Z" fill="#D7C1B3" stroke="#D7C1B3" stroke-linecap="round" stroke-linejoin="round"/>
        <path d="M138.8,193.5 L110.6,185.2 L130.5,176.1 L138.8,193.5 Z" fill="#233447" stroke="#233447" stroke-linecap="round" stroke-linejoin="round"/>
        <path d="M179.7,193.5 L188,176.1 L208,185.2 L179.7,193.5 Z" fill="#233447" stroke="#233447" stroke-linecap="round" stroke-linejoin="round"/>
        <path d="M106.8,247.4 L111.6,206.8 L80.3,207.7 L106.8,247.4 Z" fill="#CD6116" stroke="#CD6116" stroke-linecap="round" stroke-linejoin="round"/>
        <path d="M207,206.8 L211.8,247.4 L238.3,207.7 L207,206.8 Z" fill="#CD6116" stroke="#CD6116" stroke-linecap="round" stroke-linejoin="round"/>
        <path d="M230.8,162.1 L174.6,164.6 L179.8,193.5 L188.1,176.1 L208.1,185.2 L230.8,162.1 Z" fill="#CD6116" stroke="#CD6116" stroke-linecap="round" stroke-linejoin="round"/>
        <path d="M110.6,185.2 L130.6,176.1 L138.8,193.5 L144.1,164.6 L87.8,162.1 L110.6,185.2 Z" fill="#CD6116" stroke="#CD6116" stroke-linecap="round" stroke-linejoin="round"/>
        <path d="M87.8,162.1 L111.4,208.1 L110.6,185.2 L87.8,162.1 Z" fill="#E4751F" stroke="#E4751F" stroke-linecap="round" stroke-linejoin="round"/>
        <path d="M208.1,185.2 L207.1,208.1 L230.8,162.1 L208.1,185.2 Z" fill="#E4751F" stroke="#E4751F" stroke-linecap="round" stroke-linejoin="round"/>
        <path d="M144.1,164.6 L138.8,193.5 L145.4,227.6 L146.9,182.7 L144.1,164.6 Z" fill="#E4751F" stroke="#E4751F" stroke-linecap="round" stroke-linejoin="round"/>
        <path d="M174.6,164.6 L171.9,182.6 L173.1,227.6 L179.8,193.5 L174.6,164.6 Z" fill="#E4751F" stroke="#E4751F" stroke-linecap="round" stroke-linejoin="round"/>
        <path d="M179.8,193.5 L173.1,227.6 L177.9,230.9 L207.1,208.1 L208.1,185.2 L179.8,193.5 Z" fill="#F6851B" stroke="#F6851B" stroke-linecap="round" stroke-linejoin="round"/>
        <path d="M110.6,185.2 L111.4,208.1 L140.6,230.9 L145.4,227.6 L138.8,193.5 L110.6,185.2 Z" fill="#F6851B" stroke="#F6851B" stroke-linecap="round" stroke-linejoin="round"/>
        <path d="M180.3,262.3 L180.6,253 L178.1,250.8 L140.4,250.8 L138.1,253 L138.3,262.3 L106.8,247.4 L117.8,256.4 L140.1,271.9 L178.4,271.9 L200.8,256.4 L211.8,247.4 L180.3,262.3 Z" fill="#C0AD9E" stroke="#C0AD9E" stroke-linecap="round" stroke-linejoin="round"/>
        <path d="M177.9,230.9 L173.1,227.6 L145.4,227.6 L140.6,230.9 L138.1,253 L140.4,250.8 L178.1,250.8 L180.6,253 L177.9,230.9 Z" fill="#161616" stroke="#161616" stroke-linecap="round" stroke-linejoin="round"/>
        <path d="M278.3,114.2 L286,73.4 L274.1,35.5 L177.9,106.9 L214.9,138.2 L267.2,153.5 L278.8,140 L273.8,136.4 L281.8,129.1 L275.6,124.3 L283.6,118.2 L278.3,114.2 Z" fill="#763D16" stroke="#763D16" stroke-linecap="round" stroke-linejoin="round"/>
        <path d="M32.6,73.4 L40.3,114.2 L34.9,118.2 L42.9,124.3 L36.8,129.1 L44.8,136.4 L39.8,140 L51.3,153.5 L103.6,138.2 L140.6,106.9 L44.4,35.5 L32.6,73.4 Z" fill="#763D16" stroke="#763D16" stroke-linecap="round" stroke-linejoin="round"/>
        <path d="M267.2,153.5 L214.9,138.2 L230.8,162.1 L207.1,208.1 L238.3,207.7 L284.8,207.7 L267.2,153.5 Z" fill="#F6851B" stroke="#F6851B" stroke-linecap="round" stroke-linejoin="round"/>
        <path d="M103.6,138.2 L51.3,153.5 L33.9,207.7 L80.3,207.7 L111.4,208.1 L87.8,162.1 L103.6,138.2 Z" fill="#F6851B" stroke="#F6851B" stroke-linecap="round" stroke-linejoin="round"/>
        <path d="M174.6,164.6 L177.9,106.9 L193.1,65.8 L125.6,65.8 L140.6,106.9 L144.1,164.6 L145.3,182.8 L145.4,227.6 L173.1,227.6 L173.3,182.8 L174.6,164.6 Z" fill="#F6851B" stroke="#F6851B" stroke-linecap="round" stroke-linejoin="round"/>
    </g>
</svg>
